<svg width="313" height="55" viewBox="0 0 313 55" fill="none" xmlns="http://www.w3.org/2000/svg">
<path d="M0.5 0H312.5L303 55H13L0.5 0Z" fill="#D25B37"/>
<path d="M73 19.5V37H75.125V19.5H73ZM92.3779 19.5V32.525L79.1279 18.625V37H81.2529V23.975L94.5029 37.875V19.5H92.3779ZM98.5127 19.5V37H100.638V19.5H98.5127ZM105.891 28.25C105.891 26.8833 106.191 25.6917 106.791 24.675C107.407 23.6417 108.207 22.8333 109.191 22.25C110.174 21.6667 111.241 21.375 112.391 21.375C113.224 21.375 113.982 21.4833 114.666 21.7C115.366 21.9167 115.999 22.225 116.566 22.625C117.132 23.0083 117.616 23.4583 118.016 23.975V21.175C117.282 20.525 116.482 20.0417 115.616 19.725C114.749 19.4083 113.674 19.25 112.391 19.25C111.174 19.25 110.032 19.475 108.966 19.925C107.916 20.3583 106.991 20.9833 106.191 21.8C105.391 22.6 104.766 23.55 104.316 24.65C103.866 25.75 103.641 26.95 103.641 28.25C103.641 29.55 103.866 30.75 104.316 31.85C104.766 32.95 105.391 33.9083 106.191 34.725C106.991 35.525 107.916 36.15 108.966 36.6C110.032 37.0333 111.174 37.25 112.391 37.25C113.674 37.25 114.749 37.0917 115.616 36.775C116.482 36.4583 117.282 35.975 118.016 35.325V32.525C117.616 33.0417 117.132 33.5 116.566 33.9C115.999 34.2833 115.366 34.5833 114.666 34.8C113.982 35.0167 113.224 35.125 112.391 35.125C111.241 35.125 110.174 34.8333 109.191 34.25C108.207 33.6667 107.407 32.8583 106.791 31.825C106.191 30.7917 105.891 29.6 105.891 28.25ZM121.755 19.5V37H123.88V19.5H121.755ZM129.558 31.75H138.808L138.058 29.75H130.308L129.558 31.75ZM134.133 23.45L137.133 30.5L137.333 31L139.883 37H142.258L134.133 18.625L126.008 37H128.383L130.983 30.85L131.183 30.4L134.133 23.45ZM147.512 28.375L153.512 37H156.137L149.887 28.375H147.512ZM144.387 19.5V37H146.512V19.5H144.387ZM145.562 21.375H149.137C149.887 21.375 150.545 21.5083 151.112 21.775C151.695 22.0417 152.145 22.425 152.462 22.925C152.795 23.425 152.962 24.0333 152.962 24.75C152.962 25.4667 152.795 26.075 152.462 26.575C152.145 27.075 151.695 27.4583 151.112 27.725C150.545 27.9917 149.887 28.125 149.137 28.125H145.562V30H149.137C150.27 30 151.278 29.7917 152.162 29.375C153.062 28.9417 153.77 28.3333 154.287 27.55C154.82 26.75 155.087 25.8167 155.087 24.75C155.087 23.6667 154.82 22.7333 154.287 21.95C153.77 21.1667 153.062 20.5667 152.162 20.15C151.278 19.7167 150.27 19.5 149.137 19.5H145.562V21.375ZM166.521 31.7L164.821 32.85C165.204 33.6167 165.696 34.3417 166.296 35.025C166.913 35.6917 167.621 36.2333 168.421 36.65C169.238 37.05 170.121 37.25 171.071 37.25C171.771 37.25 172.438 37.1333 173.071 36.9C173.721 36.6667 174.296 36.3333 174.796 35.9C175.313 35.4667 175.713 34.9417 175.996 34.325C176.296 33.7083 176.446 33.0167 176.446 32.25C176.446 31.45 176.304 30.7667 176.021 30.2C175.738 29.6167 175.371 29.125 174.921 28.725C174.488 28.3083 174.013 27.9667 173.496 27.7C172.979 27.4333 172.488 27.2167 172.021 27.05C171.004 26.7 170.196 26.35 169.596 26C169.013 25.6333 168.596 25.25 168.346 24.85C168.096 24.4333 167.971 23.9833 167.971 23.5C167.971 22.9333 168.188 22.425 168.621 21.975C169.054 21.5083 169.746 21.275 170.696 21.275C171.379 21.275 171.954 21.4083 172.421 21.675C172.904 21.9417 173.313 22.2833 173.646 22.7C173.979 23.1167 174.254 23.5417 174.471 23.975L176.296 22.925C176.013 22.3083 175.621 21.725 175.121 21.175C174.621 20.6083 174.013 20.15 173.296 19.8C172.596 19.4333 171.771 19.25 170.821 19.25C169.838 19.25 168.963 19.45 168.196 19.85C167.429 20.2333 166.829 20.7667 166.396 21.45C165.963 22.1333 165.746 22.9083 165.746 23.775C165.746 24.575 165.896 25.25 166.196 25.8C166.513 26.35 166.913 26.8167 167.396 27.2C167.879 27.5667 168.388 27.875 168.921 28.125C169.454 28.3583 169.938 28.55 170.371 28.7C171.038 28.9333 171.663 29.2 172.246 29.5C172.846 29.7833 173.329 30.1583 173.696 30.625C174.063 31.0917 174.246 31.7167 174.246 32.5C174.246 33.3 173.963 33.9583 173.396 34.475C172.829 34.9917 172.079 35.25 171.146 35.25C170.446 35.25 169.821 35.1 169.271 34.8C168.721 34.5 168.221 34.0833 167.771 33.55C167.338 33.0167 166.921 32.4 166.521 31.7ZM180.742 37H189.567V35H180.742V37ZM180.742 21.5H189.567V19.5H180.742V21.5ZM180.742 28.5H189.067V26.5H180.742V28.5ZM179.567 19.5V37H181.692V19.5H179.567ZM193.963 31.7L192.263 32.85C192.646 33.6167 193.138 34.3417 193.738 35.025C194.354 35.6917 195.063 36.2333 195.863 36.65C196.679 37.05 197.563 37.25 198.513 37.25C199.213 37.25 199.879 37.1333 200.513 36.9C201.163 36.6667 201.738 36.3333 202.238 35.9C202.754 35.4667 203.154 34.9417 203.438 34.325C203.738 33.7083 203.888 33.0167 203.888 32.25C203.888 31.45 203.746 30.7667 203.463 30.2C203.179 29.6167 202.813 29.125 202.363 28.725C201.929 28.3083 201.454 27.9667 200.938 27.7C200.421 27.4333 199.929 27.2167 199.463 27.05C198.446 26.7 197.638 26.35 197.038 26C196.454 25.6333 196.038 25.25 195.788 24.85C195.538 24.4333 195.413 23.9833 195.413 23.5C195.413 22.9333 195.629 22.425 196.063 21.975C196.496 21.5083 197.188 21.275 198.138 21.275C198.821 21.275 199.396 21.4083 199.863 21.675C200.346 21.9417 200.754 22.2833 201.088 22.7C201.421 23.1167 201.696 23.5417 201.913 23.975L203.738 22.925C203.454 22.3083 203.063 21.725 202.563 21.175C202.063 20.6083 201.454 20.15 200.738 19.8C200.038 19.4333 199.213 19.25 198.263 19.25C197.279 19.25 196.404 19.45 195.638 19.85C194.871 20.2333 194.271 20.7667 193.838 21.45C193.404 22.1333 193.188 22.9083 193.188 23.775C193.188 24.575 193.338 25.25 193.638 25.8C193.954 26.35 194.354 26.8167 194.838 27.2C195.321 27.5667 195.829 27.875 196.363 28.125C196.896 28.3583 197.379 28.55 197.813 28.7C198.479 28.9333 199.104 29.2 199.688 29.5C200.288 29.7833 200.771 30.1583 201.138 30.625C201.504 31.0917 201.688 31.7167 201.688 32.5C201.688 33.3 201.404 33.9583 200.838 34.475C200.271 34.9917 199.521 35.25 198.588 35.25C197.888 35.25 197.263 35.1 196.713 34.8C196.163 34.5 195.663 34.0833 195.213 33.55C194.779 33.0167 194.363 32.4 193.963 31.7ZM207.009 19.5V37H209.134V19.5H207.009ZM214.387 28.25C214.387 26.9333 214.67 25.7583 215.237 24.725C215.82 23.6917 216.612 22.875 217.612 22.275C218.612 21.675 219.745 21.375 221.012 21.375C222.295 21.375 223.428 21.675 224.412 22.275C225.412 22.875 226.195 23.6917 226.762 24.725C227.345 25.7583 227.637 26.9333 227.637 28.25C227.637 29.5667 227.345 30.7417 226.762 31.775C226.195 32.8083 225.412 33.625 224.412 34.225C223.428 34.825 222.295 35.125 221.012 35.125C219.745 35.125 218.612 34.825 217.612 34.225C216.612 33.625 215.82 32.8083 215.237 31.775C214.67 30.7417 214.387 29.5667 214.387 28.25ZM212.137 28.25C212.137 29.5167 212.353 30.7 212.787 31.8C213.237 32.9 213.862 33.8583 214.662 34.675C215.462 35.475 216.403 36.1083 217.487 36.575C218.57 37.025 219.745 37.25 221.012 37.25C222.295 37.25 223.47 37.025 224.537 36.575C225.62 36.1083 226.562 35.475 227.362 34.675C228.162 33.8583 228.778 32.9 229.212 31.8C229.662 30.7 229.887 29.5167 229.887 28.25C229.887 26.9667 229.662 25.7833 229.212 24.7C228.778 23.6 228.162 22.65 227.362 21.85C226.562 21.0333 225.62 20.4 224.537 19.95C223.47 19.4833 222.295 19.25 221.012 19.25C219.745 19.25 218.57 19.4833 217.487 19.95C216.403 20.4 215.462 21.0333 214.662 21.85C213.862 22.65 213.237 23.6 212.787 24.7C212.353 25.7833 212.137 26.9667 212.137 28.25ZM224.012 14L222.137 13L218.387 17L219.512 17.75L224.012 14ZM246.138 19.5V32.525L232.888 18.625V37H235.013V23.975L248.263 37.875V19.5H246.138Z" fill="white"/>
</svg>
